# xmcd
#
# Track frame offsets:
#	150
#	11180
#	27607
#	40385
#	52935
#	64297
#	77630
#	88112
#	101185
#	114202
#	124670
#	140395
#	163255
#	182032
#
# Disc length: 2638 seconds
#
# Revision: 1
# Processed by: cddbd v1.5.2PL0 Copyright (c) Steve Scherf et al.
# Submitted via: audiograbber 1.83.01
#
DISCID=c10a4c0e
DTITLE=Groovy Rednecks - Loud Mouth Drunks
DYEAR=2006
DGENRE=Country
TTITLE0=Barefoot And Pregnant
TTITLE1=Bartender's Daughter
TTITLE2=Sugar Mama
TTITLE3=White Ring
TTITLE4=Made In Japan
TTITLE5=Are You My Girl
TTITLE6=Baby's Tab
TTITLE7=Two Cousins
TTITLE8=The Love She Loves To Hide
TTITLE9=Four Shots
TTITLE10=Drinkin' Every Night
TTITLE11=Where You Been All My Life
TTITLE12=Company Van
TTITLE13=11 Months And 29 Days
EXTD=
EXTT0=
EXTT1=
EXTT2=
EXTT3=
EXTT4=
EXTT5=
EXTT6=
EXTT7=
EXTT8=
EXTT9=
EXTT10=
EXTT11=
EXTT12=
EXTT13=
PLAYORDER=
